<?xml version="1.0" standalone="no"?>
<!DOCTYPE svg PUBLIC "-//W3C//DTD SVG 20010904//EN"
 "http://www.w3.org/TR/2001/REC-SVG-20010904/DTD/svg10.dtd">
<svg version="1.0" xmlns="http://www.w3.org/2000/svg"
 width="30.000000pt" height="31.000000pt" viewBox="0 0 30.000000 31.000000"
 preserveAspectRatio="xMidYMid meet">
<metadata>
Created by potrace 1.16, written by Peter Selinger 2001-2019
</metadata>
<g transform="translate(0.000000,31.000000) scale(0.002351,-0.002753)"
fill="#000000" stroke="none">
<path d="M5690 10104 c-30 -8 -101 -28 -157 -45 -121 -35 -131 -35 -135 -7 -5
37 -32 32 -114 -24 -44 -30 -110 -71 -149 -92 -106 -57 -130 -79 -195 -176
-73 -109 -94 -126 -167 -134 -32 -4 -85 -16 -119 -27 -171 -55 -352 -247 -384
-407 -60 -290 -57 -451 11 -627 45 -117 121 -254 189 -340 26 -34 53 -71 59
-84 7 -12 15 -21 17 -18 3 3 9 60 14 128 10 150 22 193 64 235 39 39 99 51
177 35 96 -18 202 -23 288 -12 93 12 101 9 101 -40 0 -15 -12 -37 -31 -55 -30
-28 -33 -29 -125 -26 -52 1 -94 0 -94 -3 0 -2 15 -11 33 -20 52 -24 150 -89
155 -103 6 -18 -96 -62 -144 -62 -25 0 -47 6 -54 15 -9 11 -16 13 -23 6 -7 -7
-6 -15 3 -25 20 -25 6 -41 -56 -60 -33 -10 -87 -33 -122 -52 -34 -19 -69 -34
-76 -34 -30 0 -256 -193 -256 -218 0 -15 53 1 144 43 42 19 76 33 76 31 0 -2
-22 -17 -49 -33 -84 -53 -261 -276 -261 -331 0 -22 8 -17 75 47 58 55 96 81
169 115 53 24 109 47 127 51 l32 7 -20 -28 c-11 -16 -37 -67 -58 -114 -71
-156 -142 -228 -349 -352 -49 -30 -91 -58 -93 -64 -2 -7 23 -13 69 -16 88 -7
107 0 291 93 76 39 143 69 149 67 17 -6 -219 -216 -273 -244 -75 -37 -201 -64
-314 -65 -55 -1 -113 -5 -130 -8 l-30 -7 40 -18 c64 -28 148 -38 320 -39 139
-1 168 2 225 21 113 38 118 35 185 -78 21 -36 77 -118 124 -183 46 -65 86
-124 87 -132 1 -8 23 -38 48 -66 30 -33 46 -60 46 -77 0 -29 -128 -298 -166
-349 -13 -17 -24 -34 -24 -38 0 -6 -81 -151 -117 -207 -12 -21 -23 -42 -23
-47 0 -8 -23 -50 -90 -166 -9 -16 -41 -70 -71 -118 -92 -152 -105 -175 -239
-446 -184 -371 -210 -461 -210 -720 1 -112 4 -150 15 -165 8 -11 15 -34 15
-50 1 -38 41 -179 57 -198 7 -7 20 -34 31 -58 11 -25 34 -65 53 -90 19 -25 46
-64 61 -87 42 -64 83 -107 180 -189 140 -119 409 -244 521 -244 37 0 39 1 25
18 -9 9 -29 49 -46 87 -123 287 -140 590 -48 885 54 172 191 469 283 613 15
23 34 54 43 70 8 15 50 89 93 166 42 76 77 140 77 143 0 6 48 88 102 175 23
36 45 58 71 69 54 25 124 98 159 169 30 58 31 65 32 195 1 74 -3 155 -7 179
l-8 43 34 -43 c104 -137 234 -386 298 -572 29 -83 32 -226 6 -278 -22 -45
-125 -159 -143 -159 -7 0 -18 -9 -24 -20 -6 -11 -18 -20 -27 -20 -9 0 -25 -7
-35 -17 -10 -9 -35 -19 -55 -22 -57 -9 -54 -31 4 -31 46 1 141 28 228 65 83
36 226 149 268 213 36 55 64 147 72 237 7 87 -7 224 -30 278 -24 57 -111 203
-154 257 -23 29 -57 81 -77 117 -47 83 -41 91 58 75 99 -16 246 -18 260 -4 13
13 -12 26 -161 76 -150 52 -238 99 -338 182 -51 43 -91 79 -89 82 3 2 46 -17
97 -43 147 -74 399 -150 399 -120 0 4 -45 52 -100 106 -106 106 -130 135 -135
171 -2 13 -13 57 -23 98 -21 77 -35 253 -20 244 4 -3 8 -10 8 -15 0 -6 16 -47
36 -92 42 -96 171 -293 278 -427 139 -172 216 -328 201 -408 -12 -71 -46 -166
-85 -245 -22 -44 -39 -82 -36 -84 2 -2 32 22 67 54 34 32 60 51 57 41 -4 -9 1
-23 13 -34 10 -9 19 -21 19 -26 0 -15 118 -246 155 -304 19 -30 35 -58 35 -62
0 -5 13 -26 30 -48 16 -21 30 -44 30 -50 0 -5 14 -29 30 -51 33 -44 67 -104
126 -218 20 -38 91 -171 157 -295 116 -218 176 -343 182 -385 1 -11 7 -31 13
-45 12 -29 38 -207 47 -325 9 -126 -22 -367 -63 -485 -11 -30 -33 -83 -49
-117 -17 -35 -28 -64 -26 -67 5 -5 89 11 153 30 74 21 179 69 302 137 20 11
67 48 104 83 37 35 76 66 86 70 10 3 18 9 18 14 0 4 9 19 20 32 11 12 48 64
83 113 204 293 255 663 138 1005 -63 186 -137 339 -289 602 -134 233 -182 317
-182 323 0 3 -35 63 -79 133 -90 145 -204 360 -256 483 -120 278 -126 301
-100 380 l18 53 22 -74 c56 -192 150 -337 298 -461 46 -39 66 -49 94 -49 26 0
34 -4 30 -14 -5 -11 8 -15 58 -18 57 -3 62 -1 54 15 -6 9 -21 17 -36 17 -58 0
-156 76 -243 189 -52 68 -142 263 -128 277 3 2 10 -14 17 -37 7 -22 14 -39 17
-37 2 3 -3 27 -11 54 -32 110 -99 603 -93 686 l3 43 63 -93 c117 -173 210
-372 226 -487 l6 -40 -11 34 c-15 48 -19 34 -8 -24 16 -78 50 -178 59 -168 17
20 89 214 99 269 14 76 14 234 1 344 -18 139 -49 220 -156 395 -23 39 -41 71
-40 72 2 2 26 -4 54 -12 93 -28 336 -75 388 -75 45 0 74 12 74 31 0 9 -157
100 -168 97 -25 -8 -129 82 -296 257 -169 177 -201 216 -178 215 6 0 192 -96
290 -151 44 -24 173 -146 224 -210 14 -19 30 -30 35 -26 4 5 0 13 -10 18 -9 6
-17 17 -17 26 0 9 -30 97 -66 196 -67 183 -95 269 -90 274 4 4 111 -128 125
-154 15 -29 31 -30 31 -3 0 27 -20 65 -129 250 -50 84 -91 154 -91 157 0 2 5
1 10 -2 6 -3 13 1 16 9 4 12 20 4 69 -35 75 -58 99 -64 55 -11 -17 20 -46 60
-64 87 -19 28 -82 112 -140 189 -103 135 -116 156 -96 156 11 0 172 -134 209
-174 14 -14 28 -26 31 -26 18 0 -101 214 -234 422 -6 9 -33 45 -61 79 -27 35
-42 60 -32 56 9 -4 24 -10 33 -14 9 -3 -10 29 -44 73 -51 68 -135 150 -305
302 -21 18 -49 51 -63 73 -16 25 -31 39 -42 37 -9 -1 -52 18 -95 42 -43 25
-90 51 -103 58 -14 8 -28 20 -31 28 -3 8 -14 14 -25 14 -11 0 -27 9 -36 20
-24 27 -175 103 -269 134 -83 28 -265 53 -413 58 -47 2 -88 8 -92 13 -13 17
-374 17 -438 -1z m334 -765 c14 -16 33 -43 43 -59 26 -45 105 -67 186 -52 49
9 69 19 101 50 71 68 145 77 117 15 -20 -43 -77 -126 -102 -147 -69 -58 -163
-79 -245 -57 -39 10 -134 83 -134 101 0 5 -13 28 -29 52 -16 24 -32 61 -35 83
l-7 40 40 2 c33 2 44 -2 65 -28z m794 -2559 c86 -123 98 -144 127 -216 35 -88
31 -121 -32 -251 l-50 -103 -7 92 c-3 50 -6 116 -6 147 0 63 -17 128 -84 316
-25 71 -46 133 -46 138 0 12 35 -32 98 -123z"/>
<path d="M6270 4571 c-76 -12 -159 -75 -218 -166 -23 -35 -26 -51 -26 -131 -1
-112 -4 -108 213 -341 56 -60 76 -105 60 -136 -20 -39 -52 -67 -98 -88 -65
-29 -82 -25 -140 31 -55 53 -68 59 -77 35 -4 -8 -12 -15 -20 -15 -8 0 -22 -9
-31 -20 -10 -11 -25 -20 -34 -20 -9 0 -28 -9 -42 -20 -14 -11 -30 -20 -36 -20
-6 0 -11 -4 -11 -10 0 -5 7 -10 15 -10 8 0 15 -7 15 -15 0 -8 8 -23 18 -33 10
-10 21 -26 25 -35 3 -9 16 -17 27 -17 11 0 20 -5 20 -11 0 -5 25 -22 56 -36
51 -23 65 -25 138 -20 72 5 120 19 166 48 8 5 26 14 40 20 31 13 137 115 155
150 25 46 34 136 21 200 -14 65 -51 119 -182 264 -88 98 -100 119 -85 159 12
30 65 66 99 66 25 0 63 -19 75 -38 12 -19 52 -5 130 45 l68 45 -24 41 c-37 63
-70 78 -179 82 -51 2 -113 0 -138 -4z"/>
<path d="M2153 3040 l-23 -9 0 -625 c0 -387 4 -635 10 -651 l10 -26 107 3 108
3 3 198 2 197 128 0 c130 0 183 7 162 20 -6 4 7 10 30 14 87 14 210 128 261
241 44 99 48 251 10 360 -22 63 -81 155 -98 155 -7 0 -13 9 -13 19 0 13 -9 21
-29 26 -16 3 -32 12 -34 19 -3 8 -21 16 -40 20 -20 4 -37 11 -39 16 -8 23
-503 41 -555 20z m450 -201 c52 -14 111 -69 132 -125 25 -65 18 -173 -15 -239
-38 -76 -91 -99 -237 -103 l-113 -4 0 241 0 241 98 0 c53 0 114 -5 135 -11z"/>
<path d="M6958 3044 c-5 -4 -8 -216 -8 -471 0 -441 6 -545 30 -563 4 -3 15
-21 24 -41 22 -47 111 -140 156 -163 155 -79 368 -81 511 -5 118 63 201 198
219 355 5 49 10 265 10 481 0 378 -1 393 -19 403 -25 13 -131 13 -165 0 l-26
-10 0 -445 c0 -473 0 -477 -49 -532 -10 -13 -26 -23 -34 -23 -8 0 -17 -6 -20
-13 -8 -22 -95 -42 -177 -42 -64 0 -85 5 -135 30 -79 40 -113 84 -126 166 -7
40 -10 211 -7 461 1 218 0 400 -5 404 -10 10 -170 18 -179 8z"/>
<path d="M4665 3034 c-33 -5 -38 -7 -137 -54 -36 -17 -69 -37 -72 -45 -3 -8
-12 -15 -19 -15 -8 0 -39 -24 -69 -52 -47 -46 -70 -77 -136 -183 -42 -68 -62
-161 -62 -288 0 -170 27 -246 147 -415 45 -63 133 -142 159 -142 8 0 14 -4 14
-10 0 -12 78 -46 154 -67 82 -22 267 -22 361 1 156 38 321 169 395 316 54 106
74 194 75 315 0 64 -6 129 -14 155 -29 98 -66 178 -112 240 -45 62 -117 130
-137 130 -5 0 -15 6 -21 14 -12 14 -81 50 -156 82 -30 13 -77 17 -190 19 -82
2 -163 1 -180 -1z m283 -239 c112 -39 187 -101 233 -191 13 -27 31 -57 39 -68
23 -28 21 -257 -3 -280 -9 -10 -17 -24 -17 -31 0 -23 -58 -102 -103 -140 -75
-65 -193 -115 -272 -115 -48 0 -146 29 -199 59 -65 37 -143 111 -171 162 -14
27 -24 49 -20 49 3 0 -2 11 -10 24 -10 14 -18 57 -22 107 -5 73 -2 93 19 155
29 82 31 85 113 169 46 46 76 68 120 85 113 42 202 47 293 15z"/>
<path d="M9117 3033 c-16 -4 -17 -15 -15 -91 l3 -87 176 -3 177 -2 7 -28 c4
-15 6 -252 5 -527 -1 -275 -1 -512 -1 -527 l1 -27 100 -3 100 -3 2 555 3 555
173 3 172 2 1 75 c1 41 2 81 3 88 1 6 -3 15 -9 19 -11 8 -868 9 -898 1z"/>
<path d="M5904 2729 c-11 -17 -13 -826 -2 -857 8 -23 9 -23 145 -19 175 5 225
16 324 69 77 41 149 111 149 144 0 8 11 48 25 90 28 86 31 159 11 246 -16 66
-56 158 -86 196 -31 39 -123 98 -183 117 -72 23 -370 34 -383 14z m319 -165
c21 -4 37 -12 37 -19 0 -8 10 -17 21 -20 64 -21 103 -122 97 -253 -3 -78 -7
-95 -33 -138 -17 -27 -41 -54 -54 -60 -13 -7 -27 -17 -30 -23 -4 -6 -39 -16
-78 -23 -108 -18 -103 -30 -103 246 0 127 3 248 7 270 l6 38 46 -6 c25 -3 63
-9 84 -12z"/>
<path d="M3318 2583 c-16 -4 -18 -20 -20 -131 -1 -70 -1 -210 1 -312 3 -213 2
-210 93 -210 l58 0 0 59 c0 98 11 152 29 149 8 -2 47 -43 86 -92 39 -48 82
-94 96 -102 27 -15 135 -19 143 -5 3 5 -21 46 -54 92 -91 128 -89 120 -42 174
52 60 65 99 60 190 -2 55 -9 81 -24 102 -27 37 -98 70 -176 83 -62 10 -217 12
-250 3z m261 -138 c35 -17 41 -32 41 -96 0 -47 -2 -49 -40 -69 -21 -11 -57
-20 -78 -20 -36 0 -40 3 -46 31 -8 40 -8 133 0 153 8 21 84 22 123 1z"/>
<path d="M8496 2554 c-88 -29 -147 -75 -193 -153 -24 -41 -27 -56 -27 -136 -1
-83 2 -94 33 -150 39 -71 78 -115 102 -115 9 0 43 -12 75 -27 103 -47 315 -42
387 9 26 19 28 24 25 82 -3 53 -6 61 -23 64 -12 2 -38 -9 -58 -23 -121 -82
-293 -43 -356 80 -14 26 -24 63 -24 81 2 76 79 161 166 185 47 13 162 6 201
-12 43 -20 56 -6 56 59 l0 59 -64 11 c-104 20 -210 14 -300 -14z"/>
<path d="M10244 2546 c-64 -20 -102 -47 -119 -82 -32 -68 -8 -128 66 -168 27
-15 70 -43 94 -62 25 -19 52 -34 60 -34 9 0 18 -6 21 -14 3 -8 16 -17 29 -20
47 -12 39 -79 -11 -92 -36 -9 -103 2 -123 20 -10 9 -28 16 -42 16 -36 -1 -134
-44 -134 -59 0 -8 32 -32 70 -55 l70 -41 150 1 c99 0 158 5 170 13 17 10 15
11 -15 5 -44 -8 -30 9 22 25 47 15 78 63 78 121 0 36 -5 47 -37 76 -20 19 -41
34 -47 34 -5 0 -48 26 -95 59 -47 32 -101 66 -118 75 -25 12 -33 23 -33 43 l0
26 94 -7 c85 -6 99 -5 136 14 55 28 49 48 -24 84 -47 24 -74 30 -140 33 -49 2
-97 -2 -122 -11z"/>
</g>
</svg>
